<svg width="40" height="40" viewBox="0 0 40 40" fill="none" xmlns="http://www.w3.org/2000/svg">
<path d="M17.7778 13.3777L19.8333 18.0444H20.0055L22.0611 13.3777H17.7778ZM30.8611 20.6277L27.7055 15.511C26.8889 14.1888 25.4444 13.3777 23.8889 13.3777H23.0333L20.9778 18.0444H21.1889C21.5278 18.0444 21.8055 18.3166 21.8055 18.661V22.3221C21.8055 22.661 21.5278 22.9332 21.1889 22.9332H18.65C18.3111 22.9332 18.0333 22.661 18.0333 22.3221V18.661C18.0333 18.3166 18.3111 18.0444 18.65 18.0444H18.8611L16.8055 13.3777H15.95C14.3944 13.3777 12.95 14.1888 12.1333 15.511L8.97776 20.6277C8.36665 21.6221 8.5111 22.8999 9.32221 23.7332L11.2778 25.7332L12.3833 25.461C13.9611 25.0721 15.6167 25.1499 17.1444 25.6944L24.7444 28.3777L24.9222 26.311C25.0444 26.6221 25.2611 26.911 25.6055 27.0999C26.2389 27.4555 27.0333 27.2888 27.5389 26.7721L30.5111 23.7332C31.3278 22.8999 31.4722 21.6221 30.8611 20.6277ZM14.5778 24.6777L11.8278 21.8499L14.2444 18.4888L14.8 24.9777C14.7389 24.8721 14.6667 24.7721 14.5778 24.6777ZM25.2555 24.6777C25.1722 24.7721 25.1 24.8721 25.0389 24.9777L25.5889 18.4888L28.0111 21.8499L25.2555 24.6777Z" fill="url(#paint0_linear_1098_17367)"/>
<path d="M35.5945 30.1944L23.3667 37.05C22.0056 37.8111 20.3833 37.9389 18.9167 37.4L9.19446 33.8222L9.91668 27.0555C9.91668 27.0555 9.91668 27.0111 9.91668 26.9944L10.5722 26.7444C12.3611 26.0555 14.3167 25.95 16.1611 26.4278C16.3778 26.4833 16.5945 26.55 16.8056 26.6222L25.9445 29.7167C26.3611 29.8555 26.6778 30.1555 26.85 30.5278C26.9945 30.8389 27.0389 31.2 26.95 31.5555C26.7778 32.2555 26.1445 32.7278 25.45 32.7278C25.3556 32.7278 25.2556 32.7167 25.1611 32.7L15.4778 30.8444L15.3222 31.5555L25.0222 33.4111C25.1611 33.4389 25.3111 33.45 25.45 33.45C26.5 33.45 27.4056 32.7389 27.6556 31.7222C27.7778 31.2222 27.7222 30.7167 27.5278 30.2667L34.4445 27.7278C34.6 27.6722 34.7556 27.6444 34.9111 27.6444C35.4333 27.6444 35.9278 27.95 36.1556 28.45C36.4389 29.0889 36.1889 29.8444 35.5778 30.1889L35.5945 30.1944Z" fill="url(#paint1_linear_1098_17367)"/>
<path d="M3.54443 24.6167V35.2H7.14999C7.7111 35.2 8.17777 34.7778 8.23888 34.2223L9.01666 26.9611C9.07221 26.4167 8.72221 25.9167 8.19443 25.7834L3.54443 24.6223V24.6167Z" fill="url(#paint2_linear_1098_17367)"/>
<path d="M20.0167 2.47778H19.8112C17.7217 2.47778 16.0278 4.17164 16.0278 6.26112V8.17778C16.0278 10.2673 17.7217 11.9611 19.8112 11.9611H20.0167C22.1062 11.9611 23.8001 10.2673 23.8001 8.17778V6.26112C23.8001 4.17164 22.1062 2.47778 20.0167 2.47778Z" fill="url(#paint3_linear_1098_17367)"/>
<defs>
<linearGradient id="paint0_linear_1098_17367" x1="19.9167" y1="2.86102" x2="19.9167" y2="27.561" gradientUnits="userSpaceOnUse">
<stop stop-color="#F69621"/>
<stop offset="0.54" stop-color="#F17121"/>
<stop offset="1" stop-color="#F15D00"/>
</linearGradient>
<linearGradient id="paint1_linear_1098_17367" x1="22.7389" y1="26.15" x2="22.7389" y2="37.3944" gradientUnits="userSpaceOnUse">
<stop stop-color="#C2DBFF"/>
<stop offset="1" stop-color="#78AFFF"/>
</linearGradient>
<linearGradient id="paint2_linear_1098_17367" x1="6.28332" y1="23.8834" x2="6.28332" y2="38.6611" gradientUnits="userSpaceOnUse">
<stop stop-color="#162585"/>
<stop offset="1" stop-color="#0077FC"/>
</linearGradient>
<linearGradient id="paint3_linear_1098_17367" x1="19.9167" y1="2.57223" x2="19.9167" y2="27.9611" gradientUnits="userSpaceOnUse">
<stop stop-color="#F69621"/>
<stop offset="0.54" stop-color="#F17121"/>
<stop offset="1" stop-color="#F15D00"/>
</linearGradient>
</defs>
</svg>
