<svg width="40" height="40" viewBox="0 0 40 40" fill="none" xmlns="http://www.w3.org/2000/svg">
<path d="M6.64003 4.08008H37.6C38.04 4.08008 38.4 4.44008 38.4 4.88008V24.8801C38.4 25.3201 38.04 25.6801 37.6 25.6801H6.64003C6.20003 25.6801 5.84003 25.3201 5.84003 24.8801V4.88008C5.84003 4.44008 6.20003 4.08008 6.64003 4.08008Z" fill="url(#paint0_linear_1098_17344)"/>
<g style="mix-blend-mode:soft-light" opacity="0.3">
<path d="M8.4 6.15991H20C20.24 6.15991 20.4 6.31991 20.4 6.55991V23.7199C20.4 23.9599 20.24 24.1199 20 24.1199H8.4C8.16 24.1199 8 23.9599 8 23.7199V6.55991C8 6.31991 8.16 6.15991 8.4 6.15991Z" fill="black"/>
</g>
<path d="M7.44 20.3601C9.58286 20.3601 11.32 18.623 11.32 16.4801C11.32 14.3372 9.58286 12.6001 7.44 12.6001C5.29713 12.6001 3.56 14.3372 3.56 16.4801C3.56 18.623 5.29713 20.3601 7.44 20.3601Z" fill="url(#paint1_linear_1098_17344)"/>
<path d="M21.6 15.3601C20.92 14.9201 20.04 15.0801 19.6 15.7601L15.48 21.8001H5.47997C3.31998 21.8001 1.59998 23.5601 1.59998 25.6801V30.3201C1.59998 30.6001 1.79998 30.8001 2.07998 30.8001H12.76C13.04 30.8001 13.24 30.5601 13.24 30.3201V24.7201H16.24C16.72 24.7201 17.16 24.4801 17.44 24.0801L22 17.4001C22.44 16.7201 22.28 15.8001 21.6 15.3601Z" fill="url(#paint2_linear_1098_17344)"/>
<g style="mix-blend-mode:soft-light" opacity="0.53">
<path d="M22.8 19.04H36.12C36.36 19.04 36.52 19.2 36.52 19.44V21.28C36.52 21.52 36.36 21.68 36.12 21.68H22.8C22.56 21.68 22.4 21.52 22.4 21.28V19.44C22.4 19.2 22.56 19.04 22.8 19.04Z" fill="white"/>
</g>
<path d="M22.8 6.15991H36.12C36.36 6.15991 36.52 6.31991 36.52 6.55991V17.1999C36.52 17.4399 36.36 17.5999 36.12 17.5999H22.8C22.56 17.5999 22.4 17.4399 22.4 17.1999V6.55991C22.4 6.31991 22.56 6.15991 22.8 6.15991Z" fill="url(#paint3_linear_1098_17344)"/>
<path d="M24.36 12.3201L26.56 10.1201L27.24 10.8401L25.68 12.3601L27.24 13.8801L26.56 14.5601L24.36 12.3201Z" fill="white"/>
<path d="M30.92 8.6001L29.16 15.2001H28.04L29.8 8.6001H30.92Z" fill="white"/>
<path d="M31.68 13.8001L33.24 12.2801L31.68 10.8001L32.36 10.1201L34.56 12.3201L32.36 14.5201L31.68 13.8001Z" fill="white"/>
<path d="M33.44 30.1601C35.3177 30.1601 36.84 28.6379 36.84 26.7601C36.84 24.8823 35.3177 23.3601 33.44 23.3601C31.5622 23.3601 30.04 24.8823 30.04 26.7601C30.04 28.6379 31.5622 30.1601 33.44 30.1601Z" fill="url(#paint4_linear_1098_17344)"/>
<path d="M35.32 31.4402H31.52C29.76 31.4402 28.32 32.8802 28.32 34.6402V35.5202C28.32 35.7602 28.48 35.9202 28.72 35.9202H38.12C38.36 35.9202 38.52 35.7602 38.52 35.5202V34.6402C38.52 32.8802 37.08 31.4402 35.32 31.4402Z" fill="url(#paint5_linear_1098_17344)"/>
<path d="M21.88 30.1601C23.7577 30.1601 25.28 28.6379 25.28 26.7601C25.28 24.8823 23.7577 23.3601 21.88 23.3601C20.0022 23.3601 18.48 24.8823 18.48 26.7601C18.48 28.6379 20.0022 30.1601 21.88 30.1601Z" fill="url(#paint6_linear_1098_17344)"/>
<path d="M23.8 31.4402H20C18.24 31.4402 16.8 32.8802 16.8 34.6402V35.5202C16.8 35.7602 16.96 35.9202 17.2 35.9202H26.6C26.84 35.9202 27 35.7602 27 35.5202V34.6402C27 32.8802 25.56 31.4402 23.8 31.4402Z" fill="url(#paint7_linear_1098_17344)"/>
<defs>
<linearGradient id="paint0_linear_1098_17344" x1="22.122" y1="25.5881" x2="22.122" y2="4.79608" gradientUnits="userSpaceOnUse">
<stop stop-color="#162585"/>
<stop offset="1" stop-color="#0077FC"/>
</linearGradient>
<linearGradient id="paint1_linear_1098_17344" x1="7.428" y1="12.0512" x2="7.428" y2="30.2439" gradientUnits="userSpaceOnUse">
<stop stop-color="#F69621"/>
<stop offset="0.54" stop-color="#F17121"/>
<stop offset="1" stop-color="#F15D00"/>
</linearGradient>
<linearGradient id="paint2_linear_1098_17344" x1="11.9231" y1="12.0512" x2="11.9231" y2="30.2439" gradientUnits="userSpaceOnUse">
<stop stop-color="#F69621"/>
<stop offset="0.54" stop-color="#F17121"/>
<stop offset="1" stop-color="#F15D00"/>
</linearGradient>
<linearGradient id="paint3_linear_1098_17344" x1="29.464" y1="7.42391" x2="29.464" y2="17.0799" gradientUnits="userSpaceOnUse">
<stop stop-color="#C2DBFF"/>
<stop offset="1" stop-color="#8CBBFF"/>
</linearGradient>
<linearGradient id="paint4_linear_1098_17344" x1="33.428" y1="40.1345" x2="33.428" y2="23.8011" gradientUnits="userSpaceOnUse">
<stop stop-color="#C2DBFF"/>
<stop offset="1" stop-color="#8CBBFF"/>
</linearGradient>
<linearGradient id="paint5_linear_1098_17344" x1="33.426" y1="42.5322" x2="33.426" y2="31.7202" gradientUnits="userSpaceOnUse">
<stop stop-color="#C2DBFF"/>
<stop offset="1" stop-color="#8CBBFF"/>
</linearGradient>
<linearGradient id="paint6_linear_1098_17344" x1="21.892" y1="40.1345" x2="21.892" y2="23.8011" gradientUnits="userSpaceOnUse">
<stop stop-color="#C2DBFF"/>
<stop offset="1" stop-color="#8CBBFF"/>
</linearGradient>
<linearGradient id="paint7_linear_1098_17344" x1="21.894" y1="42.5322" x2="21.894" y2="31.7202" gradientUnits="userSpaceOnUse">
<stop stop-color="#C2DBFF"/>
<stop offset="1" stop-color="#8CBBFF"/>
</linearGradient>
</defs>
</svg>
