<svg width="40" height="40" viewBox="0 0 40 40" fill="none" xmlns="http://www.w3.org/2000/svg">
<path d="M33.2159 5.42796V38.328C33.2165 38.3898 33.2048 38.451 33.1815 38.5083C33.1582 38.5655 33.1238 38.6176 33.0803 38.6615C33.0368 38.7054 32.985 38.7402 32.928 38.764C32.8709 38.7877 32.8097 38.8 32.7479 38.8H8.30794C8.24595 38.8 8.18458 38.7878 8.12731 38.764C8.07005 38.7403 8.01801 38.7055 7.97418 38.6617C7.93035 38.6179 7.89559 38.5659 7.87187 38.5086C7.84815 38.4513 7.83594 38.3899 7.83594 38.328V5.42796C7.83699 5.30347 7.88719 5.18444 7.97559 5.09679C8.06399 5.00914 8.18345 4.95996 8.30794 4.95996H32.7479C32.8721 4.95996 32.9911 5.00927 33.0789 5.09704C33.1666 5.1848 33.2159 5.30384 33.2159 5.42796Z" fill="url(#paint0_linear_1098_17309)"/>
<path d="M29.332 1.67195V34.572C29.3309 34.6958 29.2813 34.8142 29.1937 34.9017C29.1062 34.9893 28.9878 35.0389 28.864 35.04H4.43196C4.30747 35.04 4.18802 34.9908 4.09961 34.9031C4.01121 34.8155 3.96102 34.6964 3.95996 34.572V8.71995L11.48 1.19995H28.872C28.9951 1.20308 29.1121 1.25419 29.198 1.34237C29.2839 1.43055 29.332 1.54882 29.332 1.67195Z" fill="url(#paint1_linear_1098_17309)"/>
<path d="M3.95996 8.71995H11.012C11.1358 8.71891 11.2542 8.66926 11.3417 8.58172C11.4293 8.49418 11.4789 8.37575 11.48 8.25195V1.19995L3.95996 8.71995Z" fill="url(#paint2_linear_1098_17309)"/>
<g style="mix-blend-mode:soft-light" opacity="0.4">
<path d="M26.3959 3.7439H14.4239C14.203 3.7439 14.0239 3.92298 14.0239 4.1439V14.8599C14.0239 15.0808 14.203 15.2599 14.4239 15.2599H26.3959C26.6168 15.2599 26.7959 15.0808 26.7959 14.8599V4.1439C26.7959 3.92298 26.6168 3.7439 26.3959 3.7439Z" fill="white"/>
</g>
<path d="M9.30391 18.188H6.90391C6.68299 18.188 6.50391 18.3671 6.50391 18.588V20.988C6.50391 21.2089 6.68299 21.388 6.90391 21.388H9.30391C9.52482 21.388 9.70391 21.2089 9.70391 20.988V18.588C9.70391 18.3671 9.52482 18.188 9.30391 18.188Z" fill="url(#paint3_linear_1098_17309)"/>
<g style="mix-blend-mode:soft-light" opacity="0.3">
<path d="M19.516 18.988H11.016C10.9276 18.988 10.856 19.0597 10.856 19.148V20.428C10.856 20.5164 10.9276 20.588 11.016 20.588H19.516C19.6043 20.588 19.676 20.5164 19.676 20.428V19.148C19.676 19.0597 19.6043 18.988 19.516 18.988Z" fill="black"/>
</g>
<path d="M9.30391 23.0798H6.90391C6.68299 23.0798 6.50391 23.2589 6.50391 23.4798V25.8798C6.50391 26.1007 6.68299 26.2798 6.90391 26.2798H9.30391C9.52482 26.2798 9.70391 26.1007 9.70391 25.8798V23.4798C9.70391 23.2589 9.52482 23.0798 9.30391 23.0798Z" fill="url(#paint4_linear_1098_17309)"/>
<g style="mix-blend-mode:soft-light" opacity="0.3">
<path d="M19.516 23.8799H11.016C10.9276 23.8799 10.856 23.9515 10.856 24.0399V25.3199C10.856 25.4082 10.9276 25.4799 11.016 25.4799H19.516C19.6043 25.4799 19.676 25.4082 19.676 25.3199V24.0399C19.676 23.9515 19.6043 23.8799 19.516 23.8799Z" fill="black"/>
</g>
<path d="M9.30391 27.9758H6.90391C6.68299 27.9758 6.50391 28.1549 6.50391 28.3758V30.7758C6.50391 30.9967 6.68299 31.1758 6.90391 31.1758H9.30391C9.52482 31.1758 9.70391 30.9967 9.70391 30.7758V28.3758C9.70391 28.1549 9.52482 27.9758 9.30391 27.9758Z" fill="url(#paint5_linear_1098_17309)"/>
<g style="mix-blend-mode:soft-light" opacity="0.3">
<path d="M19.516 28.7759H11.016C10.9276 28.7759 10.856 28.8475 10.856 28.9359V30.2159C10.856 30.3042 10.9276 30.3759 11.016 30.3759H19.516C19.6043 30.3759 19.676 30.3042 19.676 30.2159V28.9359C19.676 28.8475 19.6043 28.7759 19.516 28.7759Z" fill="black"/>
</g>
<g style="mix-blend-mode:soft-light" opacity="0.15">
<path d="M33.216 18.268V33.468C31.9165 34.128 30.4695 34.4437 29.0131 34.3851C27.5568 34.3264 26.1398 33.8953 24.8976 33.133C23.6554 32.3706 22.6294 31.3025 21.9176 30.0306C21.2059 28.7587 20.8322 27.3255 20.8322 25.868C20.8322 24.4105 21.2059 22.9773 21.9176 21.7054C22.6294 20.4335 23.6554 19.3654 24.8976 18.603C26.1398 17.8406 27.5568 17.4096 29.0131 17.3509C30.4695 17.2922 31.9165 17.608 33.216 18.268Z" fill="black"/>
</g>
<path d="M29.34 32.5599C33.0403 32.5599 36.04 29.5602 36.04 25.8599C36.04 22.1596 33.0403 19.1599 29.34 19.1599C25.6397 19.1599 22.64 22.1596 22.64 25.8599C22.64 29.5602 25.6397 32.5599 29.34 32.5599Z" fill="url(#paint6_linear_1098_17309)"/>
<g style="mix-blend-mode:soft-light" opacity="0.4">
<g style="mix-blend-mode:soft-light" opacity="0.4">
<path d="M29.332 31.72C28.1733 31.7184 27.0411 31.3734 26.0785 30.7285C25.1159 30.0837 24.3661 29.1679 23.9238 28.097C23.4815 27.0261 23.3665 25.8481 23.5936 24.7119C23.8206 23.5757 24.3793 22.5323 25.1992 21.7135C26.019 20.8948 27.0632 20.3375 28.1997 20.112C29.3362 19.8866 30.514 20.0031 31.5844 20.4468C32.6547 20.8906 33.5694 21.6417 34.2129 22.6052C34.8565 23.5687 35.2 24.7013 35.2 25.86C35.1995 26.6301 35.0473 27.3925 34.7521 28.1037C34.4569 28.815 34.0245 29.4612 33.4796 30.0053C32.9347 30.5495 32.288 30.981 31.5763 31.2752C30.8647 31.5694 30.1021 31.7205 29.332 31.72ZM29.332 20.4C28.2552 20.4008 27.2027 20.7207 26.3076 21.3193C25.4124 21.9179 24.7148 22.7683 24.3027 23.7631C23.8906 24.758 23.7826 25.8527 23.9923 26.9089C24.202 27.9651 24.72 28.9355 25.4809 29.6975C26.2417 30.4595 27.2114 30.9789 28.2673 31.1901C29.3232 31.4014 30.418 31.295 31.4135 30.8843C32.4089 30.4737 33.2604 29.7773 33.8603 28.8831C34.4602 27.9888 34.7816 26.9368 34.784 25.86C34.7856 25.1432 34.6457 24.4332 34.3723 23.7705C34.099 23.1079 33.6976 22.5057 33.1911 21.9985C32.6847 21.4913 32.0831 21.089 31.4208 20.8147C30.7586 20.5404 30.0488 20.3995 29.332 20.4Z" fill="white"/>
</g>
</g>
<path d="M31.332 27.0278C31.3384 27.3312 31.2534 27.6295 31.088 27.8838C30.9234 28.133 30.6899 28.329 30.416 28.4478C30.1967 28.5497 29.961 28.612 29.72 28.6318V29.2758H29V28.6198C28.8014 28.5894 28.6078 28.5329 28.424 28.4518C28.1416 28.3254 27.8944 28.1318 27.704 27.8878C27.5153 27.635 27.3917 27.3397 27.344 27.0278L28.056 26.9118C28.1032 27.1147 28.1948 27.3045 28.324 27.4678C28.4547 27.6273 28.6203 27.7546 28.808 27.8398C29.0086 27.9265 29.2255 27.9688 29.444 27.9638C29.6548 27.9683 29.8643 27.9302 30.06 27.8518C30.2189 27.7836 30.3569 27.6746 30.46 27.5358C30.5565 27.3974 30.6082 27.2326 30.608 27.0638C30.6109 26.9498 30.5848 26.837 30.532 26.7358C30.476 26.6363 30.3946 26.5535 30.296 26.4958C30.1708 26.4171 30.0365 26.354 29.896 26.3078L28.652 25.9078C28.3347 25.8246 28.0484 25.6509 27.828 25.4078C27.6388 25.1757 27.5394 24.8832 27.548 24.5838C27.5424 24.301 27.6204 24.0227 27.772 23.7838C27.9269 23.5492 28.1464 23.3644 28.404 23.2518C28.5939 23.1645 28.7964 23.1078 29.004 23.0838V22.4438H29.732V23.1078C29.9186 23.1354 30.1004 23.1893 30.272 23.2678C30.5322 23.3921 30.7587 23.5774 30.932 23.8078C31.1182 24.0536 31.243 24.3402 31.296 24.6438L30.568 24.7998C30.5411 24.6095 30.4675 24.4288 30.3537 24.2738C30.2399 24.1189 30.0896 23.9945 29.916 23.9118C29.7335 23.823 29.5348 23.7726 29.332 23.7638C29.1442 23.756 28.957 23.7902 28.784 23.8638C28.6268 23.9213 28.4884 24.021 28.384 24.1518C28.2968 24.2671 28.2491 24.4074 28.248 24.5518C28.2462 24.6347 28.2624 24.717 28.2956 24.793C28.3288 24.8689 28.378 24.9368 28.44 24.9918C28.6229 25.1357 28.8342 25.2393 29.06 25.2958L30.052 25.5878C30.3087 25.6555 30.5531 25.7635 30.776 25.9078C30.946 26.025 31.0836 26.1832 31.176 26.3678C31.2792 26.5725 31.3327 26.7986 31.332 27.0278Z" fill="white"/>
<defs>
<linearGradient id="paint0_linear_1098_17309" x1="20.5279" y1="5.11596" x2="20.5279" y2="38.62" gradientUnits="userSpaceOnUse">
<stop stop-color="#C2DBFF"/>
<stop offset="1" stop-color="#8CBBFF"/>
</linearGradient>
<linearGradient id="paint1_linear_1098_17309" x1="16.652" y1="34.22" x2="16.652" y2="1.93595" gradientUnits="userSpaceOnUse">
<stop stop-color="#162585"/>
<stop offset="1" stop-color="#0077FC"/>
</linearGradient>
<linearGradient id="paint2_linear_1098_17309" x1="7.71996" y1="8.62795" x2="7.71996" y2="1.28795" gradientUnits="userSpaceOnUse">
<stop stop-color="#162585"/>
<stop offset="1" stop-color="#0062CF"/>
</linearGradient>
<linearGradient id="paint3_linear_1098_17309" x1="70.2799" y1="162.732" x2="70.2799" y2="186.156" gradientUnits="userSpaceOnUse">
<stop stop-color="#C2DBFF"/>
<stop offset="1" stop-color="#8CBBFF"/>
</linearGradient>
<linearGradient id="paint4_linear_1098_17309" x1="70.2799" y1="206.76" x2="70.2799" y2="230.216" gradientUnits="userSpaceOnUse">
<stop stop-color="#C2DBFF"/>
<stop offset="1" stop-color="#8CBBFF"/>
</linearGradient>
<linearGradient id="paint5_linear_1098_17309" x1="70.2799" y1="250.824" x2="70.2799" y2="274.248" gradientUnits="userSpaceOnUse">
<stop stop-color="#C2DBFF"/>
<stop offset="1" stop-color="#8CBBFF"/>
</linearGradient>
<linearGradient id="paint6_linear_1098_17309" x1="29.34" y1="18.9799" x2="29.34" y2="32.5199" gradientUnits="userSpaceOnUse">
<stop stop-color="#F69621"/>
<stop offset="0.54" stop-color="#F17121"/>
<stop offset="1" stop-color="#F15D00"/>
</linearGradient>
</defs>
</svg>
