<svg width="32" height="32" viewBox="0 0 32 32" fill="none" xmlns="http://www.w3.org/2000/svg">
<g clip-path="url(#clip0_1098_17335)">
<path d="M24.7255 0.033493C24.4943 0.095993 24.2443 0.320992 24.1255 0.577243C24.0193 0.802243 24.0068 1.00849 24.0068 2.40849V3.98349L16.9005 4.00849C9.25051 4.02724 9.54426 4.02099 8.22551 4.35849C7.18801 4.62724 5.863 5.20849 4.99425 5.78349C1.98175 7.78349 0.0817508 11.1835 0.0442508 14.6397C0.0380008 15.3085 0.0442508 15.3522 0.206751 15.5647C0.531751 15.996 0.550501 15.996 3.088 15.9772L5.363 15.9585L5.59425 15.7772C5.90051 15.546 5.98175 15.3335 6.02551 14.6772C6.11301 13.4335 6.61301 12.3335 7.48176 11.4647C7.92551 11.021 8.63176 10.546 9.11926 10.3647C10.088 10.0022 9.56301 10.0272 17.088 10.0022L24.0068 9.98349V11.5647C24.0068 12.971 24.0193 13.1772 24.1255 13.4022C24.3568 13.9022 24.9443 14.121 25.4193 13.8772C25.563 13.8022 26.9505 12.4522 28.8005 10.6022C31.5568 7.83974 31.938 7.42724 31.9755 7.22099C32.0818 6.64599 32.2005 6.78349 28.8005 3.37724C27.0755 1.64599 25.5568 0.177243 25.4318 0.108493C25.2068 -0.00400734 24.988 -0.029007 24.7255 0.033493Z" fill="#EF6807"/>
<path d="M26.6005 16.0771C26.2068 16.2521 26.0068 16.6084 26.0068 17.1146C26.0068 17.5271 25.863 18.2459 25.6755 18.7521C25.163 20.1709 23.9318 21.3084 22.413 21.7834L21.8505 21.9584L14.9318 21.9771L8.00676 21.9959V20.4396C8.00676 19.4834 7.98176 18.8021 7.93801 18.6709C7.76926 18.1521 7.12551 17.8584 6.63801 18.0834C6.48176 18.1521 5.31926 19.2709 3.23801 21.3521C0.456762 24.1396 0.075512 24.5521 0.038012 24.7584C-0.068238 25.3334 -0.186988 25.1959 3.21301 28.6021C5.06301 30.4521 6.45051 31.8021 6.59426 31.8771C7.06926 32.1208 7.65676 31.9021 7.88801 31.4021C7.99426 31.1771 8.00676 30.9709 8.00676 29.5709V27.9959L15.113 27.9709C22.7568 27.9459 22.4693 27.9584 23.788 27.6209C24.9818 27.3146 26.3255 26.6834 27.3818 25.9396C28.1443 25.4021 29.4193 24.1271 29.9568 23.3646C31.2255 21.5709 31.9443 19.4146 31.9693 17.3396C31.9755 16.5584 31.9318 16.4396 31.5443 16.1521C31.3818 16.0271 31.288 16.0209 29.0818 16.0084C27.263 15.9959 26.7505 16.0084 26.6005 16.0771Z" fill="#EF6807"/>
</g>
<defs>
<clipPath id="clip0_1098_17335">
<rect width="32" height="32" fill="white"/>
</clipPath>
</defs>
</svg>
