<svg width="113" height="64" viewBox="0 0 113 64" fill="none" xmlns="http://www.w3.org/2000/svg">
<path d="M10.76 20.3955C8.74118 20.7524 7.1877 22.3002 6.67343 24.2619C6.36379 25.4431 6.56318 26.8617 6.56318 28.0772V35.517C6.56318 37.5478 6.23269 39.7785 7.49654 41.526C8.28762 42.6198 9.51369 43.4041 10.8554 43.5958C13.4817 43.9711 16.4034 43.6244 19.0582 43.6244C21.1611 43.6244 23.5708 43.9525 25.6395 43.5801C27.5422 43.2377 29.1226 41.7577 29.6305 39.9045C29.9978 38.5641 29.8363 37.0855 29.8363 35.7077V28.268C29.8363 26.2253 30.0808 24.1002 28.7944 22.3543C28.0356 21.3246 26.737 20.5063 25.4488 20.3678C22.6546 20.0676 19.676 20.3513 16.8644 20.3513C14.9092 20.3513 12.6847 20.0553 10.76 20.3955Z" fill="#5D0FC3"/>
<path d="M37.4669 32.4647H42.6175V36.28C42.6175 36.8917 42.5046 37.6247 42.793 38.1862C43.5421 39.6454 45.687 38.9414 45.7613 37.4246C45.8977 34.6413 45.7651 31.8179 45.7651 29.031C45.7651 27.8266 46.0588 26.1681 45.6593 25.025C45.2344 23.8091 43.3652 23.6772 42.7785 24.8346C42.1802 26.015 42.6175 28.2918 42.6175 29.6033H37.4669V26.3603C37.4669 25.8811 37.5598 25.2777 37.3412 24.8346C36.7945 23.7266 34.9759 23.7871 34.5109 24.9297C34.0857 25.9746 34.4147 27.7174 34.4147 28.8402C34.4147 31.7494 34.2511 34.7115 34.4188 37.6153C34.5036 39.0838 36.6708 39.4838 37.3279 38.1873C37.5894 37.6712 37.4669 36.937 37.4669 36.3754V32.4647ZM102.04 27.4095V26.2649H103.948C104.89 26.2649 106.991 25.51 105.557 24.3032C105.18 23.9866 104.605 23.9781 104.139 23.9758C103.019 23.9704 101.022 23.6045 100.153 24.473C99.414 25.2122 99.7512 26.9231 99.7512 27.8864C99.7512 28.2846 99.6926 28.7416 99.8134 29.1264C99.9238 29.4779 100.184 29.7704 100.515 29.9302C101.476 30.3951 102.102 29.4905 102.994 29.6265C103.572 29.7147 104.059 30.3584 104.003 30.9386C103.927 31.7282 103.106 32.3886 102.326 32.0933C101.866 31.9191 101.581 31.4714 101.086 31.3577C100.321 31.1818 99.4068 31.4575 99.3828 32.3694C99.3441 33.8408 101.643 34.525 102.803 34.4589C106.001 34.2767 107.995 30.0256 105.093 27.9472C104.163 27.2813 103.122 27.2728 102.04 27.4095Z" fill="#5D0FC3"/>
<path d="M13.1445 25.0873C11.8119 25.5047 12.0953 27.0963 12.0953 28.1726C12.0953 31.2549 11.8511 34.4492 12.1042 37.52C12.1787 38.4232 12.9967 39.1176 13.9076 38.883C15.8741 38.3767 14.4597 36.2878 15.3797 35.2526C16.069 34.4771 17.4109 35.9055 18.3905 35.6956C20.391 35.2668 20.1246 32.2803 18.1998 31.9734C17.2853 31.8275 16.1204 33.102 15.3797 32.4025C14.9932 32.0375 15.1476 31.2283 15.1476 30.7479C15.1476 29.2875 15.4299 27.4853 15.016 26.0742C14.7896 25.3026 13.9147 24.846 13.1445 25.0873Z" fill="#FEFEFE"/>
<path d="M22.5874 25.0721C20.6022 25.43 22.0485 27.4154 21.1153 28.3143C20.4973 28.9096 18.533 28.5541 17.7229 28.5541C17.4454 28.5541 16.9648 28.4671 16.7312 28.6521C16.3996 28.9148 16.4466 30.5306 16.8786 30.6817C17.2075 30.7967 17.6673 30.5763 18.0091 30.5608C18.9964 30.5164 20.0003 30.8013 20.6293 31.6067C21.9214 33.2611 21.1259 35.6052 21.3651 37.52C21.4692 38.3537 22.1818 39.0653 23.0643 38.9168C24.4428 38.685 24.3043 37.1308 24.3043 36.0892C24.3043 33.069 24.3188 30.0482 24.3042 27.028C24.2994 26.0358 23.8066 24.8522 22.5874 25.0721Z" fill="#FEFEFE"/>
<path fill-rule="evenodd" clip-rule="evenodd" d="M60.9979 28.1739C61.7082 27.1339 63.4411 27.3825 63.6969 28.6493C63.817 28.581 63.9343 28.5132 64.0497 28.4465C64.9837 27.9069 65.792 27.4399 66.9399 27.3302C74.0108 26.6546 74.95 38.4541 67.9891 38.942C67.3474 38.987 66.6103 39.0174 65.986 38.8537C65.096 38.6204 64.3918 38.2165 63.6969 37.6152C63.6969 37.9455 63.7285 38.3481 63.7624 38.7804C63.8508 39.9055 63.9549 41.231 63.5579 42.0013C63.0101 43.0642 61.2088 42.9429 60.8215 41.8116C60.5893 41.1333 60.6462 40.2385 60.6984 39.4175C60.7196 39.0842 60.74 38.7632 60.74 38.4736V31.2246C60.74 31.0147 60.7252 30.7758 60.7094 30.5232C60.6588 29.7108 60.5994 28.7573 60.9979 28.1739ZM74.6374 28.1739C75.3478 27.1339 77.0807 27.3825 77.3365 28.6493C77.583 28.5236 77.8167 28.3945 78.0449 28.2685C78.9012 27.7954 79.6802 27.3651 80.7702 27.3177C81.5395 27.2843 82.3405 27.428 83.0594 27.7018C89.2468 30.0582 86.307 40.4406 79.721 38.8648C78.7935 38.6429 78.0726 38.2081 77.3365 37.6152C77.3365 37.9455 77.3681 38.3481 77.402 38.7804C77.4904 39.9055 77.5945 41.231 77.1975 42.0013C76.6354 43.0921 74.8986 42.913 74.4745 41.8116C74.2258 41.1658 74.2849 40.2721 74.3383 39.4647C74.3594 39.1458 74.3796 38.8404 74.3796 38.569V31.2246C74.3796 31.0147 74.3647 30.7758 74.349 30.5232C74.2984 29.7108 74.239 28.7573 74.6374 28.1739ZM59.3424 37.806C58.8609 39.339 56.6163 38.9761 56.3525 37.5198C55.6265 38.1045 54.8885 38.5439 53.9679 38.7397C47.3066 40.1562 44.8246 29.6458 51.2019 27.6993C51.949 27.4712 52.8124 27.4318 53.5864 27.5324C54.6526 27.6709 55.5277 28.1758 56.3525 28.8401C56.6303 27.0906 59.2957 27.1185 59.4006 28.9355C59.4765 30.2496 59.4523 31.581 59.4282 32.9075C59.4165 33.5567 59.4047 34.2048 59.4047 34.8491C59.4047 35.112 59.4225 35.4006 59.4409 35.6991C59.4854 36.42 59.5334 37.1979 59.3424 37.806ZM92.3114 34.1815H92.5022C92.7486 33.1439 93.317 32.0886 93.8557 31.0884C94.0408 30.7448 94.2224 30.4077 94.3862 30.0801C94.494 29.8645 94.5919 29.6326 94.6911 29.3978C94.9002 28.9027 95.1148 28.3945 95.4389 27.9993C95.8939 27.4442 96.87 27.3057 97.4578 27.7445C98.473 28.5024 97.686 29.9661 97.1475 30.9678C97.0598 31.1309 96.9787 31.2818 96.913 31.4154C96.2838 32.6952 95.6696 33.9825 95.0553 35.2699C94.2855 36.8833 93.5157 38.4967 92.7165 40.0951C92.6297 40.2688 92.5463 40.4568 92.461 40.649C92.0259 41.6303 91.5426 42.72 90.3084 42.5571C88.3315 42.2962 89.4962 40.0765 90.1141 38.8989C90.1783 38.7766 90.2366 38.6655 90.2848 38.569C90.3162 38.5063 90.3544 38.4392 90.3943 38.369C90.5334 38.1246 90.6931 37.844 90.656 37.588C90.5885 37.1226 90.3329 36.6282 90.0907 36.1597C89.9759 35.9376 89.8641 35.7213 89.7768 35.5168C89.6243 35.1594 89.4722 34.8017 89.3202 34.444C88.8632 33.3691 88.4061 32.294 87.9371 31.2246C87.8599 31.0486 87.7715 30.8679 87.6812 30.6833C87.3508 30.008 86.9956 29.282 87.0758 28.5539C87.2076 27.3567 88.9155 27.1935 89.6031 27.9917C89.9617 28.4079 90.1922 29.022 90.4053 29.5898C90.4823 29.7949 90.557 29.9939 90.6347 30.1754C90.8078 30.5799 90.9981 30.9858 91.1897 31.3941C91.6178 32.307 92.0517 33.2321 92.3114 34.1815ZM66.0814 30.0338C62.1212 30.8507 63.3264 37.0974 67.3214 36.2982C71.2773 35.5069 70.1021 29.2044 66.0814 30.0338ZM79.721 30.0341C75.7259 30.8864 77.0293 37.1645 81.0564 36.2785C84.9431 35.4232 83.692 29.1869 79.721 30.0341ZM52.728 30.1295C48.9109 30.9439 50.1983 37.0552 54.0633 36.2305C57.9381 35.4038 56.6533 29.292 52.728 30.1295Z" fill="#5D0FC3"/>
</svg>
