<svg width="113" height="64" viewBox="0 0 113 64" fill="none" xmlns="http://www.w3.org/2000/svg">
<path d="M45.0452 17.0531C45.516 17.8683 46.2262 18.5793 46.8175 19.3106C48.0102 20.7854 49.79 21.7901 51.7342 21.2162C52.6609 20.9426 53.4946 20.3242 54.3262 19.8475C57.2851 18.1512 60.7992 15.2563 64.3596 15.2139C66.4385 15.1892 68.0552 15.9807 69.436 17.5548C70.4584 18.7202 71.3721 20.6639 73.0552 20.875C74.6259 21.072 76.1256 19.8641 77.4031 19.1308C80.1944 17.5286 83.1034 15.2559 86.3495 14.7487C88.6143 14.3948 90.5427 15.3659 92.0109 17.0531C92.9607 18.1451 93.7576 19.6687 95.2124 20.1559C96.679 20.6468 98.0042 19.8166 99.2258 19.093C101.628 17.6695 104.17 16.4163 106.5 14.8792C106.031 14.0376 105.365 13.2848 104.761 12.538C104.272 11.9344 103.748 11.2141 103.072 10.8117C101.758 10.0307 100.391 10.5453 99.1422 11.1799C96.9833 12.2772 94.4683 14.6769 91.8679 13.9798C88.7089 13.1329 88.1796 8.69453 84.5101 8.52796C80.7424 8.35692 77.5275 10.9872 74.393 12.7763C73.0466 13.5448 71.6649 14.659 70.0452 14.6271C66.5388 14.5578 65.9052 9.88187 62.6037 9.16582C59.9764 8.59599 57.6976 9.84182 55.4967 11.0932C52.0449 13.0557 48.6418 15.3739 45.0452 17.0531Z" fill="#FFB701"/>
<path fill-rule="evenodd" clip-rule="evenodd" d="M9.42642 26.585H9.51003C10.7744 23.3215 15.6105 24.1945 16.8679 26.8358C18.0343 23.8036 22.8483 23.7914 24.3736 26.4178C25.1508 27.7561 25.1482 29.2689 25.1458 30.7632C25.1456 30.8477 25.1455 30.9321 25.1455 31.0164V37.4545H21.9682C21.9682 36.6385 21.9978 35.8028 22.0275 34.9609C22.0902 33.1867 22.1539 31.3846 21.9443 29.6786C21.8186 28.656 21.3929 27.5248 20.296 27.2342C19.0568 26.9059 17.8426 27.9224 17.5568 29.0933C17.3883 29.7832 17.4129 30.5378 17.4367 31.2698C17.445 31.5237 17.4532 31.7749 17.4532 32.0198V37.4545H14.2759C14.2759 36.6208 14.2939 35.7801 14.3119 34.9374C14.3488 33.2077 14.386 31.4691 14.2684 29.7622C14.2003 28.7725 13.7933 27.6185 12.7709 27.263C11.4308 26.7969 10.2164 27.9776 9.86196 29.177C9.67376 29.8138 9.70674 30.5572 9.73806 31.2634C9.74958 31.5229 9.76087 31.7774 9.76087 32.0198V37.4545H6.58361L6.5 24.7455H9.25919L9.42642 26.585ZM28.0719 27.7556L27.403 25.5816C28.4052 25.0689 29.4577 24.709 30.5802 24.5825C31.4448 24.4851 32.3073 24.4459 33.1722 24.5674C37.496 25.1751 37.3828 29.6996 37.292 33.3279C37.277 33.9268 37.2626 34.5013 37.2689 35.0298C37.2702 35.1436 37.2708 35.2572 37.2714 35.3707C37.275 36.043 37.2786 36.71 37.4364 37.3709L35.2625 37.4545L34.5111 37.3205L34.1756 36.0331C33.064 38.1316 29.3596 38.1448 27.7387 36.7584C26.5045 35.7028 26.2336 33.8274 26.7706 32.3542C26.9888 31.7556 27.3412 31.2129 27.8223 30.7907C28.4545 30.2357 29.271 29.835 30.0786 29.608C31.3822 29.2415 32.6644 29.177 34.0083 29.177C33.9923 29.0907 33.9779 29.0044 33.9635 28.9186C33.8956 28.5121 33.8292 28.1143 33.5929 27.7568C32.3955 25.9454 29.558 27.0834 28.0719 27.7556ZM42.1187 24.7455L42.2023 26.585C42.7707 25.9343 43.3274 25.3132 44.1254 24.9398C46.3919 23.8794 49.3224 24.6808 50.2954 27.0867C50.8228 28.3905 50.8189 29.7822 50.815 31.1649C50.8147 31.2827 50.8143 31.4005 50.8143 31.5181V37.4545H47.5535C47.5535 36.6761 47.5547 35.8977 47.556 35.1193C47.5584 33.5566 47.5609 31.9938 47.5534 30.4311C47.5482 29.3559 47.295 28.058 46.2992 27.4614C44.9413 26.6479 43.2304 27.6097 42.7667 29.0097C42.5422 29.6874 42.5726 30.4696 42.6014 31.2149C42.611 31.4611 42.6204 31.7032 42.6204 31.9362V37.4545H39.3595V29.3442C39.3595 28.9935 39.3694 28.628 39.3794 28.2553C39.4105 27.1035 39.4435 25.8842 39.1923 24.8291L42.1187 24.7455ZM66.7006 37.4545V24.7455H69.9615V37.4545H66.7006ZM72.1354 37.4545L72.0518 24.7455H74.8946L74.9782 27.1703H75.0618C75.5291 25.2038 77.4993 24.7455 79.2424 24.7455V27.6719C77.6045 27.2775 76.0071 28.0768 75.5571 29.7622C75.3576 30.5092 75.3731 31.3 75.3883 32.0768C75.3923 32.2821 75.3963 32.4864 75.3963 32.6887V37.4545H72.1354ZM80.6638 37.4545V24.7455H83.9247V37.4545H80.6638ZM31.9181 31.4521C32.6096 31.305 33.3039 31.2672 34.0084 31.2672C34.0084 31.4765 34.0183 31.6957 34.0284 31.9185C34.0529 32.4615 34.0785 33.0265 33.9641 33.5248C33.8689 33.9393 33.6339 34.3101 33.3359 34.6081C32.5942 35.3498 31.2219 35.6622 30.3372 34.9764C29.3182 34.1865 29.6965 32.5644 30.6639 31.9333C31.0436 31.6856 31.4782 31.5456 31.9181 31.4521Z" fill="#013B71"/>
<path d="M22.8043 38.2905V55.1801H24.0585V49.7454C24.0585 48.6067 23.9323 47.514 24.5026 46.4845C25.5746 44.5497 28.4866 43.7203 29.929 45.732C30.6993 46.8062 30.6638 48.1544 30.6638 49.4109V55.1801H31.8344V49.4109C31.8344 47.9559 31.9009 46.5344 31.1364 45.2303C29.6658 42.7215 25.4149 43.0095 24.1421 45.5648H24.0585V38.2905H22.8043ZM55.6638 38.2905V55.1801H56.8344V38.2905H55.6638ZM66.5334 38.2905V55.1801H67.704V49.829C67.704 48.7499 67.6243 47.5441 68.1651 46.5681C69.2474 44.6147 72.1697 43.6562 73.658 45.732C74.4242 46.8004 74.3929 48.1597 74.3929 49.4109V55.1801H75.5635V49.4109C75.5635 47.9559 75.6299 46.5344 74.8655 45.2303C73.408 42.744 68.8441 42.9455 67.7876 45.732H67.704V38.2905H66.5334ZM60.3461 41.635V43.7253H58.423V44.7286H60.3461V50.4979C60.3461 51.6103 60.2299 52.8757 60.6703 53.926C61.1758 55.1318 62.1473 55.4368 63.3561 55.4309C63.694 55.4293 64.5704 55.4409 64.6531 54.9941C64.8489 53.9362 63.656 54.4691 63.1053 54.4012C62.4527 54.3208 61.952 53.8779 61.7495 53.2571C61.4541 52.3512 61.6003 51.2709 61.6003 50.3307V44.7286H64.8611V43.7253H61.6003V41.2169L60.3461 41.635Z" fill="#013B71"/>
<path d="M12.0184 45.7319H11.9348L11.8512 43.7253H10.7642L10.8478 55.1801H12.0184V49.8289C12.0184 48.7137 11.9209 47.5878 12.4635 46.5681C13.4613 44.693 16.2775 43.6641 17.8143 45.568C18.6795 46.6399 18.7074 48.1012 18.7074 49.4109V55.1801H19.8779V49.2436C19.8779 47.8798 19.908 46.4312 19.1496 45.2303C17.682 42.9063 12.9634 42.7726 12.0184 45.7319Z" fill="#E97301"/>
<path d="M6.58356 43.7252V55.1801H7.75412V43.7252H6.58356Z" fill="#E97301"/>
<path fill-rule="evenodd" clip-rule="evenodd" d="M35.9351 52.6717C37.5585 54.9805 40.2454 54.3841 42.5368 53.7586C42.5507 53.795 42.5671 53.835 42.5845 53.8774C42.6813 54.1134 42.8099 54.4271 42.7294 54.6458C42.6288 54.9189 42.184 55.0373 41.8905 55.1154C41.8521 55.1256 41.8164 55.1352 41.7843 55.1443C40.821 55.4172 39.8503 55.4356 38.8579 55.4308C36.4532 55.4193 34.5165 53.6404 34.026 51.3339C33.5632 49.1579 33.9415 46.4299 35.6003 44.8197C37.7529 42.7301 41.7229 43.0752 42.9536 45.9827C43.4289 47.1055 43.4565 48.2141 43.4565 49.4108H35.0953C35.0953 50.0675 35.1329 50.7 35.3228 51.3339C35.4642 51.8056 35.6508 52.2672 35.9351 52.6717ZM51.1259 45.8991C50.0497 43.7966 47.4261 44.5316 45.7977 45.3974C45.2001 44.2751 46.0458 44.0051 47.0519 43.7262C48.4754 43.3315 50.3017 43.3076 51.4799 44.3377C52.5567 45.2791 52.7375 46.8996 52.7375 48.2402C52.7375 48.4079 52.7374 48.5755 52.7373 48.743C52.7363 50.8968 52.7353 53.0333 52.9047 55.18C51.6986 55.18 51.6601 54.7491 51.6505 53.5914H51.5669C50.6941 55.4631 47.4969 56.033 45.8813 54.8759C44.6081 53.9642 44.279 52.1509 44.8925 50.7486C45.1137 50.2429 45.4492 49.8084 45.8814 49.4667C46.5242 48.9586 47.2724 48.6632 48.0552 48.4433C49.1794 48.1275 50.4064 48.073 51.5669 48.073C51.5634 48.0281 51.5599 47.9831 51.5564 47.938C51.5027 47.2434 51.4474 46.527 51.1259 45.8991ZM42.2024 48.4075H35.179C35.2412 45.4108 39.2214 42.8274 41.4057 45.6484C42.0184 46.4397 42.2023 47.4322 42.2024 48.4075ZM48.8914 49.2791C49.7711 49.1201 50.6742 49.0764 51.5669 49.0764C51.5669 49.3152 51.5739 49.5589 51.5809 49.8048C51.6026 50.5713 51.625 51.3592 51.4403 52.0864C50.9772 53.9091 48.2339 55.244 46.6372 53.965C45.2924 52.8877 45.7973 50.6783 47.1355 49.869C47.6657 49.5483 48.2875 49.3882 48.8914 49.2791Z" fill="#013B71"/>
<path fill-rule="evenodd" clip-rule="evenodd" d="M61.2658 25.9997V19.7288H64.5266L64.6103 37.4545H62.52L61.7824 37.3205L61.6002 35.5314H61.5166C60.3132 38.6378 55.3925 38.0905 53.6408 35.9491C51.5816 33.432 51.5257 29.3034 53.4096 26.6686C55.1913 24.1767 59.1692 23.6496 61.2658 25.9997ZM59.0082 35.0046C54.5297 35.666 54.0761 27.6781 58.1721 27.0397C60.7388 26.6396 61.2657 29.1902 61.2657 31.1C61.2657 32.7302 61.0158 34.7081 59.0082 35.0046Z" fill="#013B71"/>
</svg>
