<svg width="113" height="64" viewBox="0 0 113 64" fill="none" xmlns="http://www.w3.org/2000/svg">
<path fill-rule="evenodd" clip-rule="evenodd" d="M35.8448 12.4587C39.5699 13.8069 41.4602 16.6008 41.6687 20.9791C41.8633 25.3297 40.0008 28.8741 36.7761 30.3058C36.3174 30.5004 35.9282 30.6811 35.9004 30.7089C35.8031 30.7923 36.9151 32.8355 37.7351 34.1143C40.668 38.6178 44.7127 42.3011 49.6332 44.9282C57.6811 49.2371 69.19 50.2378 79.2394 47.5135C82.5197 46.6239 86.3282 45.0533 88.844 43.5521L89.3444 43.2602L91.1791 44.4417C92.1799 45.1089 93 45.6649 93 45.7066C93 45.8039 90.4425 47.4301 89.3583 48C81.6162 52.1838 69.871 53.8934 59.8494 52.295C47.1591 50.2934 37.1236 43.1629 31.8278 32.4046L31.2301 31.1954H25.0309V40.9251H21V12L34.8301 12.0834L35.8448 12.4587ZM25.0309 27.3035H28.9923C31.383 27.3035 33.2317 27.2479 33.6764 27.1506C35.7614 26.7058 37.1235 25.2602 37.5266 23.0502C38.0687 20.1452 37.0401 17.4348 34.983 16.3506L34.2741 15.9753L25.0309 15.8919V27.3035Z" fill="#BE0D1E"/>
<path fill-rule="evenodd" clip-rule="evenodd" d="M53.3305 20.9236C54.512 21.132 55.7351 21.7714 56.5552 22.5776L57.278 23.2865V22.0216H60.8919V38.4232H57.278V36.3938L56.5969 37.0471C55.1375 38.451 53.7753 38.9096 51.3707 38.7985C49.5776 38.729 48.4378 38.4093 47.173 37.6309C45.0185 36.2965 43.4062 34.1838 42.8919 32.0015C42.6278 30.8618 42.6278 28.6934 42.8919 27.651C43.2811 26.0942 44.0317 24.8432 45.3243 23.5367C46.2973 22.5637 46.7421 22.2301 47.6873 21.7714C49.5637 20.868 51.4819 20.59 53.3305 20.9236ZM50.4811 24.329C49.2023 24.6764 48.0348 25.5382 47.2981 26.7197C46.2834 28.3042 46.1444 30.6672 46.9645 32.3351C47.8402 34.1282 49.6193 35.3513 51.5097 35.4764C53.9838 35.6293 56.3467 33.9892 57.0695 31.5984C57.4448 30.3753 57.3197 28.3042 56.8054 27.3174C56.027 25.8162 54.7066 24.7181 53.1637 24.3151C52.1768 24.0649 51.468 24.0649 50.4811 24.329Z" fill="#BE0D1E"/>
<path d="M69.3707 22.1606H73.6795V23.7591C73.6795 23.904 73.6808 24.037 73.682 24.1588C73.6879 24.7532 73.6912 25.085 73.5276 25.2669C73.321 25.4968 72.8479 25.4872 71.7769 25.4654C71.6027 25.4619 71.4127 25.458 71.2054 25.4548L69.3707 25.427V29.5552C69.3707 35.2263 69.3846 35.254 72.1228 35.3374L73.6795 35.393V38.5344L72.6788 38.7012C72.1228 38.7985 71.0386 38.8402 70.2185 38.8124C68.9537 38.7568 68.634 38.6873 67.939 38.3537C67.0216 37.895 66.41 37.2695 65.9791 36.3521C65.7012 35.7405 65.6873 35.4625 65.6456 30.5977C65.6039 25.9135 65.5761 25.4965 65.3676 25.4826C65.254 25.4826 64.7165 25.4712 64.1295 25.4587L64.1287 25.4586L63.9498 25.4548L62.7683 25.427V22.0911L64.1583 22.0772L65.5483 22.0494L65.59 19.6726L65.6178 17.2958H69.3707V22.1606Z" fill="#BE0D1E"/>
<path fill-rule="evenodd" clip-rule="evenodd" d="M86.3421 21.1598C87.3429 21.5212 88.0656 21.966 88.8023 22.7305L89.3861 23.3421V22.0216H93V38.4232H89.3166L89.3444 37.4502C89.3583 36.922 89.3583 36.4772 89.3305 36.4772C89.3166 36.4772 88.983 36.783 88.5799 37.1583C87.329 38.3259 85.939 38.8401 83.9514 38.8401C83.2842 38.8401 82.4502 38.7845 82.0749 38.7151C78.7668 38.0896 75.8618 35.3374 74.9722 31.9876C74.6664 30.8618 74.6803 28.7768 75 27.5815C75.4031 26.0525 76.112 24.8571 77.4324 23.5367C78.3915 22.5637 78.8363 22.2301 79.7954 21.7714C80.4486 21.4656 81.4216 21.1042 81.9498 20.993C83.2286 20.7151 85.2857 20.7846 86.3421 21.1598ZM82.5753 24.329C81.5467 24.607 80.8239 25.0517 80.0178 25.8996C79.0031 26.9977 78.6417 27.929 78.5722 29.5691C78.5166 30.7228 78.5583 31.0564 78.8224 31.7931C79.3645 33.3081 80.3374 34.3506 81.8525 35.0595C82.5336 35.3792 82.8255 35.4347 83.9652 35.4347C85.105 35.4347 85.3969 35.3792 86.0919 35.0595C87.2178 34.5313 88.427 33.3359 88.9135 32.2656C89.2888 31.4734 89.3166 31.2788 89.3166 29.8054C89.3166 28.3737 89.2749 28.1236 88.9552 27.4425C88.2185 25.9135 86.8147 24.7181 85.2579 24.3151C84.2849 24.0649 83.5761 24.0649 82.5753 24.329Z" fill="#BE0D1E"/>
</svg>
