<svg width="113" height="64" viewBox="0 0 113 64" fill="none" xmlns="http://www.w3.org/2000/svg">
<path d="M23.3378 17.475C23.8231 17.4709 24.2072 17.0598 24.589 16.7967C25.4414 16.2091 26.3108 15.6554 27.1985 15.1228C29.9828 13.4523 32.9974 12.0815 36.064 11.0169C45.6694 7.68236 56.2006 6.78248 66.235 8.33872C72.3074 9.28049 78.2101 11.0504 83.6799 13.8737C85.2088 14.6628 86.6962 15.5702 88.1126 16.5465C88.4604 16.7862 88.8057 17.0298 89.1492 17.2755C89.3058 17.3875 89.4535 17.551 89.6497 17.475C89.4388 17.126 89.0524 16.854 88.756 16.5781C88.144 16.0081 87.5252 15.4484 86.8971 14.8956C84.4252 12.7197 81.7874 10.7154 78.9969 8.96523C74.9664 6.4373 70.6302 4.41956 66.0205 3.20751C59.9856 1.62078 53.3758 1.60501 47.3245 3.11781C42.0016 4.44852 36.9766 6.91339 32.4535 9.99141C30.1528 11.557 27.9646 13.2713 25.8759 15.1101C25.369 15.5563 24.8749 16.0152 24.3745 16.468C24.0324 16.7775 23.6039 17.0983 23.3378 17.475Z" fill="#E97926"/>
<path d="M26.8411 27.1269V24.2671C26.8411 24.0145 26.9465 23.4451 26.7788 23.2418C26.6862 23.1295 26.5053 23.1589 26.3764 23.1589H25.3397H21.05V51.5426C22.4806 51.5426 23.9117 51.5783 25.3397 51.5783C25.6751 51.5783 26.5498 51.7331 26.7693 51.4274C26.9967 51.1104 26.8411 50.2792 26.8411 49.8982V45.7872V42.2482C26.8411 40.5677 26.8352 38.8854 26.8763 37.2077C26.9285 35.0781 27.0656 33.1169 28.1171 31.2021C28.9153 29.7487 30.104 28.401 31.7385 27.9034C32.4457 27.6881 33.1817 27.5916 33.9191 27.5916C34.9461 27.5916 35.8427 27.881 36.779 28.2708C36.9814 27.5861 36.8147 26.6269 36.8147 25.9115C36.8147 25.2076 36.8505 24.5038 36.8505 23.8024C36.8505 23.5741 36.9225 23.1914 36.8033 22.9882C36.6998 22.8117 36.3861 22.815 36.207 22.7868C35.5916 22.6899 34.97 22.6584 34.3481 22.6584C32.2902 22.6586 30.1788 23.4685 28.7 24.9111C28.2768 25.3239 27.877 25.7565 27.5258 26.2332C27.3099 26.5264 27.1404 26.9142 26.8411 27.1269Z" fill="#176381"/>
<path d="M91.9376 23.1589H87.6121H86.4682C86.308 23.1589 86.1104 23.1288 85.9692 23.2212C85.5888 23.4706 85.4236 24.3579 85.2599 24.7676C84.7119 26.1371 84.1703 27.509 83.6227 28.8785C81.5268 34.1179 79.3934 39.3465 77.3525 44.6075C77.0476 44.072 76.8606 43.4589 76.6226 42.8916C76.1042 41.6569 75.6109 40.4118 75.1001 39.1739C73.6562 35.6746 72.2238 32.1701 70.7964 28.664C70.3306 27.5197 69.8541 26.3793 69.3951 25.2323C69.156 24.635 68.9647 23.919 68.6226 23.3739C68.3977 23.0156 67.7114 23.1589 67.3432 23.1589H63.6969H62.6245C62.5294 23.1589 62.3339 23.1248 62.2695 23.2162C62.192 23.3264 62.3314 23.5546 62.3746 23.6594C62.5426 24.0667 62.7224 24.4695 62.8955 24.8748L65.0761 29.9867C67.0797 34.6822 69.0777 39.3801 71.0913 44.0713C71.7505 45.607 72.3983 47.147 73.0575 48.6827C73.3681 49.4063 73.855 50.207 74.0341 50.9706C74.0838 51.1819 73.9308 51.3974 73.8403 51.5783C73.6212 52.0169 73.4074 52.4577 73.1979 52.901C72.1781 55.0601 70.7492 57.146 68.1296 57.2607C67.286 57.2976 66.4381 57.1506 65.6273 56.9254C65.4078 56.8643 64.8491 56.573 64.6378 56.6945C64.4441 56.8053 64.5549 57.5596 64.5549 57.7626V60.4437C64.5549 60.7011 64.4559 61.2248 64.6121 61.44C64.7633 61.6481 65.1801 61.6627 65.4128 61.7092C66.1785 61.8622 66.9596 61.9809 67.7364 61.9809C68.1554 61.9809 68.6044 62.027 69.0201 61.9762C72.1008 61.5998 74.6364 59.9629 76.5071 57.5124C78.6244 54.7384 79.8073 51.2548 81.1722 48.075C83.3278 43.0528 85.5227 38.0475 87.6783 33.0253C88.6663 30.7229 89.6683 28.4264 90.6607 26.126C90.9592 25.4344 91.2637 24.7454 91.5594 24.0526C91.672 23.7892 91.9161 23.4345 91.9376 23.1589Z" fill="#176381"/>
<path fill-rule="evenodd" clip-rule="evenodd" d="M60.3801 44.8016C60.6984 44.5497 61.0282 44.2887 61.3733 44.1786C61.4447 44.4787 61.4315 44.8146 61.4187 45.1384C61.4139 45.262 61.4091 45.3838 61.4091 45.5012V48.0393C61.4091 48.1305 61.417 48.2405 61.4255 48.359C61.4514 48.7205 61.4831 49.1621 61.3143 49.3963C61.1276 49.6551 60.7711 49.8343 60.4525 49.9945C60.3477 50.0471 60.2471 50.0977 60.1579 50.1484C58.9611 50.8283 57.6263 51.2595 56.2972 51.5916C54.7246 51.9848 53.1181 52.117 51.507 52.1875C47.4507 52.3651 43.3763 51.5 40.3537 48.6098C38.135 46.4882 36.9852 43.5548 36.5548 40.5681C36.2635 38.5469 36.1869 36.4753 36.5376 34.4552C37.2172 30.5421 39.4777 26.8019 42.856 24.6622C47.6748 21.6103 55.1536 21.5499 59.5145 25.4886C61.1524 26.9681 62.2323 28.9543 62.839 31.0592C63.3641 32.8818 63.4824 34.7502 63.4824 36.6358C63.4824 36.8466 63.488 37.0601 63.4937 37.2744C63.5053 37.7187 63.5171 38.1667 63.4792 38.6019C63.4427 39.0174 62.9027 38.9553 62.5142 38.9106C62.4197 38.8998 62.3342 38.8899 62.267 38.8883C61.4699 38.8689 60.6736 38.8852 59.8775 38.9016C59.3394 38.9126 58.8014 38.9237 58.2633 38.9237C56.3028 38.9237 54.3414 38.9147 52.3804 38.9058C50.4202 38.8968 48.4603 38.8879 46.5023 38.8879H43.5352C43.4673 38.8879 43.388 38.883 43.3028 38.8777C43.0018 38.859 42.6287 38.8358 42.4352 39.0105C42.2699 39.1598 42.3106 39.4305 42.3437 39.6512C42.3506 39.6974 42.3572 39.7414 42.3615 39.7816C42.4378 40.4941 42.5864 41.2094 42.8085 41.8907C43.0636 42.6732 43.4103 43.4311 43.8827 44.1071C46.736 48.1905 52.5991 48.3117 56.8691 46.7013C57.9251 46.3034 58.92 45.7815 59.8719 45.1777C60.0383 45.072 60.2075 44.9381 60.3801 44.8016ZM50.046 27.1319C50.2101 27.1123 50.3752 27.0925 50.5418 27.0706C50.9526 27.0167 51.4131 27.083 51.8273 27.1425C51.8518 27.1461 51.8761 27.1496 51.9002 27.153C53.9092 27.4402 55.8596 28.6405 56.7251 30.523C57.1348 31.4144 57.3786 32.3373 57.4829 33.3113C57.4884 33.3624 57.5023 33.4295 57.5178 33.5045C57.5786 33.798 57.6644 34.2128 57.3689 34.2683C57.1161 34.3159 56.832 34.3021 56.5574 34.2887C56.4316 34.2825 56.3078 34.2765 56.1899 34.2765H53.7591H46.1806H43.4995C43.4472 34.2765 43.3753 34.2822 43.2939 34.2887C43.0355 34.3092 42.6814 34.3374 42.5559 34.2142C42.4302 34.0908 42.5355 33.7783 42.6011 33.5836C42.6132 33.5478 42.6239 33.516 42.6316 33.49C42.8379 32.7947 43.0815 32.096 43.4202 31.4524C44.4295 29.535 46.061 28.1026 48.1467 27.4744C48.7818 27.2831 49.406 27.2085 50.046 27.1319Z" fill="#176381"/>
</svg>
